<svg version="1" xmlns="http://www.w3.org/2000/svg" width="750.667" height="750.667" viewBox="0 0 563.000000 563.000000"><path d="M313.9 61.2c-1.1.5-1.7 1.3-1.3 1.9.4.7-.1.7-1.6-.1-2-1.1-2.2-1-1.6.5.5 1.5.4 1.6-.9.5-1-.8-1.5-.9-1.5-.1 0 .6-.9 1.1-2.1 1.1-1.1 0-1.8.4-1.5.8.3.5-.8.8-2.3.7-2.2-.1-2.8.2-2.3 1.3.4 1.1.1 1.3-.7.7-.8-.4-1.7-.2-2.2.6-.7 1.1-.9 1-.9-.4 0-1-.5-1.5-1-1.2-.6.4-.8 1-.6 1.4.3.4-1.5 1.8-4 3-2.4 1.2-4.2 2.7-3.9 3.2.4.5-.1.6-.9.3s-2.4.3-3.5 1.3c-1.2 1-2.5 1.8-2.9 1.8-.4.1-2.3.9-4.2 2-1.9 1.1-3.8 1.8-4.2 1.7-.5-.1-.8.2-.8.7 0 .5-1 1.3-2.2 1.7-1.2.3-2.6 1-3.2 1.5-4.9 4.1-6.1 4.9-7.7 5.4-1.2.4-1.6 1.2-1.2 2.2.4.9.2 1.4-.3 1.1-.5-.3-1.7.3-2.6 1.4-1 1-1.6 1.8-1.2 1.8.3 0-1.7 2.3-4.4 5-6 6.1-12.6 19.5-13.6 27.5-.1 1.1-.8 3.3-1.5 5-.7 1.6-1.4 4.3-1.6 5.8-.1 1.5-.5 3-.8 3.3-.3.3-.1 1.9.3 3.5.5 1.6.5 2.9.1 2.9-.5 0-.5 1.8-.1 4s.5 4 .2 4c-.2 0 0 .6.6 1.3.6.7.7 1.8.2 2.6-.4.8-.6 2.5-.4 3.8.3 1.5.1 2.2-.6 1.8-.5-.3-.8 0-.5.7.3.7.7 3.9.9 7.1.2 3.2.6 6 1 6.4 1.2 1.2.6 2.2-1.2 1.8-3.3-.6-5.5 2.1-5.4 6.7 0 8.4 1.1 17.4 2.6 21.6.8 2.3 1.5 4.6 1.5 5 0 3.2 3.9 16.7 5.2 18.1 1 1 3.6 2.1 5.8 2.5 3.7.6 4.6 1.4 4.2 3.8 0 .4.6 3.8 1.4 7.5.9 3.7 1.7 8 1.9 9.6.2 1.5.9 3.4 1.6 4.2.7.8 1 1.5.6 1.5-.3 0 .5 1.9 1.8 4.3 2 3.5 2.5 6 2.7 14.5.4 10 .4 10.2-1.8 10.2h-2.8c-.3 0-2.9.9-5.7 2-2.9 1.1-5.9 2-6.7 2-.8 0-2.2.6-3 1.4-.9.7-4.5 1.6-8 1.9-4.2.3-7.3 1.2-9.2 2.6-1.5 1.2-3.1 2.1-3.5 2.1-.3 0-1.8.8-3.2 1.9-1.5 1-4.7 2.2-7.2 2.6-2.5.4-5.6.9-6.9 1.2-1.3.2-3.5 1.2-4.7 2.2-1.3 1-3.8 2.2-5.6 2.5-1.8.3-4.4.9-5.8 1.2-1.4.3-3.6.7-5 1-1.4.2-3.6.7-5 1-1.4.3-3.2.7-4 .9-.8.2-4 1.3-7 2.5s-7.5 2.8-10 3.7c-2.5.8-5.2 2-6 2.7-.8.6-3.7 2.2-6.5 3.6-10.4 5.2-16.9 11.5-17.7 17-.2 1.5-1.8 3.6-4 5.3-2.1 1.5-3.8 3.2-3.8 3.9 0 .6-1.5 2.9-3.4 5.2-8.2 10.1-18.4 24.5-20.4 28.9-1.9 4.1-5.4 8.7-6.6 8.7-.9 0-8.9 8.7-10 10.9-.7 1.4-2.3 6.4-3.6 11.1-2.3 8.9-2.4 9-12.4 17.4-2.5 2.1-4.6 4.4-4.6 5.2 0 .7-1.7 3.3-3.7 5.8-2.1 2.5-4.6 5.6-5.5 6.8C33.5 467.6 26.5 475 25 475c-.6 0-1 .5-1 1.1 0 1.4-4.5 7.4-10.2 13.4C8.5 495.1 4 501 4 502.2c0 .4 31.7.8 70.4.8h70.4l1.6-3.4c.9-1.9 1.6-3.8 1.6-4.4 0-.8 3.1-2.1 5.2-2.2.3 0 .9 1.5 1.3 3.3.4 1.7.9 4 1.1 4.9.5 1.7 7.8 1.8 135.9 1.8 89.2 0 135.6-.3 136-1 .8-1.3 5.8-1.3 7.1 0 .7.7 20.2.9 56.6.8l55.7-.3-2.8-5.5c-1.5-3-3.9-7.3-5.3-9.5-1.5-2.2-3.8-7.9-5.2-12.8-1.4-4.8-4.5-12.5-7-17.1-3.5-6.4-4.7-9.8-5.1-14.7-1.2-11.5-11-32.9-27.8-60.4-3-5-6.9-11.7-8.6-15.1-3.2-6.4-7.2-10.5-18.6-19.4-6.5-5.1-10.2-7.3-19.5-11.3-16.2-7-23.8-11.2-28.5-15.6-2.8-2.6-7.3-5.8-9.9-7-4.4-1.9-6-2.1-15.6-1.5-12.9.8-14.7.4-19.1-4.1-1.9-1.9-3.8-3.5-4.2-3.5-.4 0-1.3-.5-2-1.1-.7-.5-2.7-1.9-4.5-3-3.6-2.1-3.5-.5-1.7-16.8.2-1.9 1.6-4.7 3.2-6.4 1.5-1.7 3.4-3.7 4-4.4.7-.8 2-3.1 2.9-5.1.9-2 2-4.6 2.5-5.7 1.6-3.6 4.9-14.7 4.9-16.6 0-1.3 1.2-2.2 4-3 5.3-1.6 6.2-2.9 6.5-9.2.2-2.8 1-6.9 1.9-8.9.9-2.1 1.6-4.8 1.6-6.2 0-1.4.4-2.7.9-3 .7-.5 3.2-8.6 3.6-11.6 0-.3.4-1 .8-1.7 1.5-2.3 1.1-9.2-.7-11.2-1.4-1.5-1.5-2.4-.6-4 .6-1.2.8-2.1.4-2.1-.3 0-.2-.6.4-1.3.6-.7 1.2-2.8 1.4-4.5.1-1.8.7-3.2 1.3-3.2.5 0 .3-.5-.5-1-1.1-.7-1.1-1-.2-1 .9 0 1-.5.2-1.9-1.2-2.4-1.3-3.4-.1-2.7.5.3 1.1-.1 1.5-.9.3-.8 0-1.7-.6-2.1-.7-.5-.8-.2-.3.6.5.9.4 1.1-.3.6-.9-.5-.8-1.2.1-2.7 1-1.6.9-2.1-.1-2.8-1.1-.6-1-1 .5-1.5 1.7-.7 1.7-.8-.1-2.2-1.7-1.2-1.5-1.8.5-1.6.8.1.5-3.1-.5-4.6-.4-.6-.4-1.7-.1-2.2.3-.6-.2-1-1.1-1-1.6 0-1.6-.1.2-1.6 1-.8 1.3-1.3.7-.9-.7.3-1.3.1-1.3-.4 0-.6.5-1.1 1-1.1.6 0 .5-.6-.2-1.4-.7-.8-1.6-1.2-1.9-1-.3.2-.6-.3-.6-1.1s.5-1.1 1-.8c.7.4.8-.1.3-1.3-.4-1-.9-2.4-1-2.9-.1-.6-.5-1.6-.9-2.3-.5-.6-.4-1.2.2-1.2.7 0 .7-.8.1-2.5-.5-1.4-.6-2.5-.2-2.5.4 0 .2-.4-.5-.8s-1.3-2.4-1.5-4.5c-.1-2-.6-3.7-1.2-3.7-.5 0-.6-.3-.3-.7.4-.3-.2-1.3-1.3-2-1.4-1-1.9-2.2-1.5-3.6.2-1.2.2-1.6-.1-1-.9 1.9-2.4 1.5-1.7-.4.5-1.2.2-1.5-.9-1-1.2.4-1.4.1-1.1-1.4.3-1 1-1.9 1.7-1.9.6 0 .4-.4-.4-.9-.8-.6-1.7-.8-2.1-.5-.4.2-.4-.9.1-2.6.5-1.7.5-2.8 0-2.5-.5.3-1.9-.9-3.1-2.7-1.3-1.8-2.6-3.5-2.9-3.8-1.8-1.6-3.9-6.1-3.4-7.4.4-1.1 0-1.3-1.7-.9-1.8.5-2.1.3-1.5-1.2.5-1.4.4-1.6-.7-.7-1.9 1.6-2.8.4-1.5-1.8.7-1 1.8-1.6 2.5-1.3.7.3 1.3 0 1.3-.7 0-.6-.4-.8-1-.5-.5.3-1 .1-1-.5s-.4-.8-1-.5c-.5.3-1 .1-1-.5s-1.3-1.6-3-2.1c-1.6-.6-2.7-1.5-2.4-2 .3-.5 0-.9-.6-.9s-.8-.5-.4-1.2.3-.8-.5-.4c-.6.4-.9 1.1-.6 1.6.3.5.1 1.2-.5 1.5-.6.4-.9.1-.8-.5.4-1.8-5.5-5-6.4-3.6-.5.8-.8.7-.8-.2 0-.6-.7-1.2-1.6-1.2-1 0-1.4-.5-1-1.6.3-.8.2-1.2-.4-.9-.6.3-1 .1-1-.4 0-2.6-1.7-4.8-3.7-4.8-.7 0-1.3.5-1.3 1.1 0 .6-.4.5-.9-.3-.6-.8-1.4-1-2.2-.5-2.5 1.5-4.1 1.3-3.4-.4.5-1.4.4-1.5-.6-.5-1.4 1.4-3.3 1.8-2.5.5.2-.4-.5-.9-1.7-.9-1.7-.2-1.9 0-.7.7.8.5 1.1 1 .5 1-.5 0-1.7-.4-2.5-1-.9-.6-1.7-.5-2.2.3-.5.8-.8.8-.8.1 0-1.2-5.2-1-7.2.2-.6.4-.9.3-.5-.2.6-1.1-4.6-1.2-7.4-.2zM370.5 81c-.3.6-1.4.9-2.3.9-1.5-.1-1.5-.2-.1-.6 1.1-.3 1.5-1.1 1.2-2.6-.4-2-.3-2 .7-.4.6.9.8 2.2.5 2.7z"/></svg>